<svg height="512pt" viewBox="0 0 512 511" width="512pt" xmlns="http://www.w3.org/2000/svg"><path d="m483.128906 454.335938c-.011718 0-.023437 0-.035156 0-7.542969 0-16.410156-6.480469-23.722656-17.335938-12.625-18.738281-21.921875-53.753906-7.976563-92.199219 13.347657-2.550781 23.46875-14.304687 23.46875-28.386719 0-15.40625-12.117187-28.035156-27.320312-28.859374-9.679688-3.933594-15.503907-8.894532-17.296875-14.757813-1.527344-5.007813.121094-10.03125 1.539062-13.050781 13.738282-2.230469 24.265625-14.167969 24.265625-28.527344 0-15.382812-12.082031-27.996094-27.253906-28.855469 12.042969-14.039062 18.882813-32.054687 18.882813-51.007812 0-5.890625-.65625-11.761719-1.953126-17.453125-.929687-4.097656-5.007812-6.664063-9.105468-5.730469-4.09375.929687-6.660156 5.007813-5.726563 9.105469 1.042969 4.585937 1.574219 9.324218 1.574219 14.078125 0 20.191406-9.628906 39.070312-25.863281 50.957031h-74.53125c-16.238281-11.882812-25.871094-30.761719-25.871094-50.957031 0-34.8125 28.324219-63.132813 63.136719-63.132813 21.003906 0 40.574218 10.40625 52.351562 27.839844 2.351563 3.480469 7.078125 4.398438 10.5625 2.046875 3.480469-2.351563 4.394532-7.082031 2.042969-10.5625-14.605469-21.628906-38.890625-34.539063-64.957031-34.539063-43.203125 0-78.347656 35.148438-78.347656 78.347657 0 18.953125 6.835937 36.972656 18.886718 51.007812-15.171875.859375-27.257812 13.472657-27.257812 28.855469 0 14.363281 10.535156 26.3125 24.28125 28.53125 1.402344 2.976562 3.039062 7.945312 1.546875 12.953125-1.757813 5.90625-7.589844 10.894531-17.324219 14.851563-15.203125.824218-27.320312 13.453124-27.320312 28.859374 0 14.082032 10.125 25.835938 23.472656 28.386719 13.945312 38.445313 4.648437 73.460938-7.976563 92.199219-7.167969 10.632812-15.820312 17.054688-23.261719 17.308594-5.351562-.253906-12.203124-5.847656-18.4375-15.101563-17.390624-25.804687-27.367187-74.0625-12.863281-114.695312 13.339844-2.554688 23.457031-14.308594 23.457031-28.386719 0-15.402344-12.117187-28.03125-27.320312-28.859375-9.683594-3.933594-15.503906-8.890625-17.296875-14.753906-1.53125-5.011719.121094-10.035157 1.539063-13.054688 13.738281-2.226562 24.261718-14.167969 24.261718-28.527343 0-15.9375-12.96875-28.902344-28.90625-28.902344h-17.214844c15.023438-12.171875 24.652344-30.75 24.652344-51.546875v-45.976563c6.328125-5.238281 11.160156-11.636718 14.414063-19.171875 11.75-27.199219-1.75-58.917969-2.332031-60.253906-1.03125-2.371094-3.191407-4.058594-5.742188-4.476563-2.554688-.417968-5.140625.484376-6.878906 2.402344-11.804688 13.058594-33.074219 10.878906-55.597656 8.570313-5.773438-.589844-11.746094-1.203125-17.640626-1.5625-17.773437-1.074219-34.050781 8.09375-42.300781 23.289062-6.359375-.382812-12.675781 1.429688-18.011719 5.277344-7.207031 5.203125-11.4375 13.277344-11.605468 22.15625-.390625 20.5 9.792968 41.730469 13.066406 48.007813v21.742187c0 17.714844 6.898438 34.367187 19.421875 46.894531 1.652344 1.648438 3.378906 3.195313 5.164063 4.648438h-15.007813c-15.941406 0-28.90625 12.96875-28.90625 28.90625 0 14.359375 10.523437 26.300781 24.261719 28.527344 1.417968 3.019531 3.066406 8.046874 1.539062 13.050781-1.792968 5.863281-7.617187 10.824219-17.296875 14.757812-15.203125.824219-27.320312 13.453125-27.320312 28.859375 0 14.078125 10.117187 25.832032 23.460937 28.382813 7.917969 22.179687 9.175782 48.3125 3.492188 74.140625-.902344 4.105468 1.691406 8.160156 5.792968 9.066406.550782.121094 1.101563.179688 1.644532.179688 3.492187 0 6.636718-2.421876 7.421875-5.976563 5.820312-26.457031 5.007812-53.332031-2.167969-76.886719h131.769531c-13.59375 44.414063-2.738281 94.21875 16.433594 122.675782 1.621094 2.40625 3.28125 4.605468 4.96875 6.625h-174.507813c5.023438-6.015626 9.707032-13.703126 13.839844-22.875 1.726563-3.828126.023438-8.332032-3.808594-10.058594-3.824218-1.726563-8.332031-.023438-10.058593 3.808594-9.070313 20.117187-19.851563 29.125-26.511719 29.125-15.9375 0-28.90625 12.96875-28.90625 28.90625s12.96875 28.90625 28.90625 28.90625h454.1875c7.722656 0 14.980469-3.003907 20.441406-8.464844 5.457032-5.460938 8.464844-12.71875 8.464844-20.441406 0-15.929688-12.949219-28.886719-28.871094-28.90625zm-400.402344-403.421876c2.226563-1.605468 4.828126-2.4375 7.476563-2.4375 1.285156 0 2.578125.195313 3.84375.589844 3.859375 1.199219 7.980469-.824218 9.386719-4.609375 4.589844-12.324219 16.5625-20.074219 29.773437-19.257812 5.578125.339843 11.394531.933593 17.015625 1.507812 21.007813 2.15625 42.605469 4.367188 59.046875-5.6875 2.542969 9.75 4.792969 25.074219-.910156 38.28125-4.3125 9.984375-12.789063 17.3125-25.1875 21.777344-35.863281 12.921875-70.53125-6.429687-70.863281-6.617187-2.117188-1.214844-4.683594-1.34375-6.910156-.34375-2.222657 1-3.835938 3.003906-4.332032 5.390624-.035156.175782-3.367187 15.589844-13.867187 19.035157-3.585938-7.511719-10.050781-23.121094-9.777344-37.519531.078125-4.046876 2.011719-7.734376 5.304687-10.109376zm7.765626 79.566407v-16.988281c12.371093-3.203126 19.117187-13.929688 22.503906-21.855469 13.976562 5.921875 43.75 15.132812 75.332031 3.753906 1.503906-.539063 2.949219-1.128906 4.367187-1.738281v36.832031c0 28.179687-22.925781 51.101563-51.101562 51.101563-13.648438 0-26.480469-5.3125-36.132812-14.964844-9.652344-9.652344-14.96875-22.488282-14.96875-36.140625zm5.953124 109.359375h92.4375c-1.257812 4.835937-1.757812 10.726562.085938 16.917968 1.125 3.785157 3 7.273438 5.578125 10.464844h-103.765625c2.578125-3.191406 4.453125-6.675781 5.582031-10.464844 1.839844-6.191406 1.339844-12.082031.082031-16.917968zm-25.28125-28.90625c0-7.550782 6.144532-13.691406 13.691407-13.691406h115.617187c7.550782 0 13.691406 6.140624 13.691406 13.691406 0 7.550781-6.140624 13.691406-13.691406 13.691406h-115.292968c-.183594-.007812-.367188-.015625-.550782-.011719-7.441406-.121093-13.464844-6.207031-13.464844-13.679687zm-18.816406 85.195312c0-7.546875 6.136719-13.683594 13.679688-13.691406h.015625.042969 153.15625.042968.019532c7.542968.007812 13.675781 6.144531 13.675781 13.691406 0 7.550782-6.144531 13.691406-13.691407 13.691406h-.0625c-.027343 0-.050781 0-.078124 0h-152.980469c-.015625 0-.027344 0-.039063 0h-.085937c-7.550781 0-13.695313-6.140624-13.695313-13.691406zm270.765625-36.003906h92.441407c-1.257813 4.835938-1.757813 10.726562.082031 16.917969 1.128906 3.789062 3.003906 7.273437 5.582031 10.464843h-103.765625c2.578125-3.191406 4.453125-6.675781 5.578125-10.464843 1.84375-6.191407 1.339844-12.082031.082031-16.917969zm-25.277343-28.90625c0-7.550781 6.140624-13.691406 13.691406-13.691406h115.613281c7.550781 0 13.691406 6.140625 13.691406 13.691406s-6.140625 13.691406-13.691406 13.691406h-115.613281c-7.550782 0-13.691406-6.140625-13.691406-13.691406zm-18.816407 85.195312c0-7.546874 6.132813-13.683593 13.675781-13.691406h.019532.042968 153.15625.042969.015625c7.542969.007813 13.679688 6.144532 13.679688 13.691406 0 7.550782-6.144532 13.691407-13.691406 13.691407h-.070313c-.023437 0-.046875 0-.070313 0h-152.972656c-.023437 0-.046875 0-.066406 0h-.070312c-7.550782 0-13.691407-6.140625-13.691407-13.691407zm29.757813 80.578126c1.820312-17.09375-.011719-34.757813-5.285156-51.675782h131.683593c-5.277343 16.917969-7.109375 34.582032-5.285156 51.675782 1.917969 17.992187 7.90625 35.21875 16.863281 48.507812 2.191406 3.253906 4.523438 6.195312 6.949219 8.835938h-168.742187c2.429687-2.640626 4.761718-5.582032 6.953124-8.835938 8.957032-13.289062 14.945313-30.515625 16.863282-48.507812zm-293.5625 86.25c0-7.550782 6.140625-13.695313 13.691406-13.695313h226.648438c.007812 0 .011718.003906.019531.003906h.867187c7.539063.007813 13.671875 6.144531 13.671875 13.691407 0 7.546874-6.140625 13.691406-13.691406 13.691406h-227.515625c-7.550781-.003906-13.691406-6.144532-13.691406-13.691406zm477.5625 9.683593c-2.585938 2.582031-6.023438 4.007813-9.683594 4.007813h-201.222656c2.203125-4.078125 3.457031-8.742188 3.457031-13.691406 0-4.953126-1.253906-9.613282-3.453125-13.691407h201.222656c7.546875 0 13.691406 6.140625 13.691406 13.691407 0 3.65625-1.425781 7.097656-4.011718 9.683593zm0 0"/><path d="m118.605469 136.003906c4.199219 0 7.605469-3.40625 7.605469-7.609375v-14.875c0-4.199219-3.40625-7.605469-7.605469-7.605469-4.203125 0-7.609375 3.40625-7.609375 7.605469v14.875c0 4.203125 3.40625 7.609375 7.609375 7.609375zm0 0"/><path d="m164.582031 136.003906c4.203125 0 7.605469-3.40625 7.605469-7.609375v-14.875c0-4.199219-3.402344-7.605469-7.605469-7.605469s-7.605469 3.40625-7.605469 7.605469v14.875c0 4.203125 3.40625 7.609375 7.605469 7.609375zm0 0"/></svg>