<svg height="512pt" viewBox="0 0 512.0001 512" width="512pt" xmlns="http://www.w3.org/2000/svg"><path d="m500.058594 404.515625c-.035156-.292969-.09375-.585937-.171875-.875-10.019531-37.453125-44.359375-63.195313-83.117188-62.308594h-1.175781l-.882812-5.066406c-3.703126-12.867187-15.875-21.417969-29.234376-20.53125h-52.675781v-26.195313c34.097657-4.320312 59.675781-33.300781 59.734375-67.671874v-119.46875c-.046875-37.683594-30.582031-68.222657-68.269531-68.265626h-17.066406v-17.066406c-.011719-9.421875-7.644531-17.0546872-17.066407-17.066406h-68.265624c-9.421876.0117188-17.054688 7.644531-17.066407 17.066406v17.066406h-17.066406c-37.6875.042969-68.222656 30.582032-68.269531 68.265626v119.46875c.058594 34.371093 25.636718 63.351562 59.734375 67.671874v26.195313h-52.617188c-13.433593-.867187-25.640625 7.78125-29.28125 20.742187l-.847656 4.855469h-1.222656c-38.761719-.886719-73.105469 24.855469-83.125 62.308594-.078125.289063-.132813.582031-.167969.875l-7.871094 57.328125c-2.710937 11.136719-4.0742185 22.5625-4.066406 34.027344v7.59375c0 4.714844 3.820312 8.535156 8.535156 8.535156h494.929688c4.714844 0 8.535156-3.820312 8.535156-8.535156v-7.59375c.007812-11.464844-1.355469-22.890625-4.066406-34.03125zm-393.507813-21.8125c.640625-.289063 1.238281-.660156 1.78125-1.101563 5.609375-4.339843 12.589844-6.515624 19.667969-6.136718 5.96875-.152344 11.867188 1.324218 17.0625 4.273437-1.167969 8.074219-2.351562 16.351563-3.519531 24.617188-6.636719-2.308594-13.621094-3.457031-20.648438-3.398438-6.078125-.035156-12.128906.804688-17.964843 2.496094zm81.183594-49.902344h15.203125c-1.351562 7.960938-2.675781 18.046875-3.949219 29.363281-6.285156-2.542968-13.007812-3.824218-19.789062-3.765624-4.738281-.003907-9.457031.617187-14.035157 1.851562 1.511719-10.128906 2.941407-19.445312 4.222657-27.449219zm104.019531 0c1.3125 7.058594 2.617188 16.527344 3.882813 27.449219-4.574219-1.234375-9.296875-1.855469-14.035157-1.851562-5.804687-.027344-11.574218.910156-17.066406 2.773437v-28.371094zm50.859375 0c1.285157 8.003907 2.710938 17.316407 4.21875 27.449219-4.574219-1.234375-9.292969-1.855469-14.03125-1.851562-6.78125-.058594-13.503906 1.222656-19.789062 3.765624-1.273438-11.316406-2.597657-21.402343-3.949219-29.363281zm-180.292969 46.835938c5.152344-2.875 10.980469-4.3125 16.878907-4.171875 6.304687-.191406 12.527343 1.476562 17.890625 4.796875-.761719 7.753906-1.496094 15.78125-2.199219 23.867187-6.429687-2.152344-13.175781-3.222656-19.957031-3.171875-5.375-.023437-10.734375.625-15.949219 1.925781 1.113281-7.832031 2.230469-15.640624 3.335937-23.246093zm190.691407 23.246093c-5.214844-1.300781-10.570313-1.949218-15.945313-1.925781-6.78125-.050781-13.527344 1.019531-19.957031 3.171875-.703125-8.082031-1.4375-16.105468-2.199219-23.855468 5.359375-3.328126 11.582032-5 17.890625-4.808594 5.894531-.140625 11.722657 1.292968 16.875 4.160156 1.105469 7.609375 2.222657 15.417969 3.335938 23.257812zm-53.125.25c-5.496094-1.472656-11.167969-2.203124-16.863281-2.175781-6.261719-.035156-12.496094.875-18.488282 2.699219v-23.902344c5.1875-2.960937 11.089844-4.441406 17.066406-4.289062 5.578126-.117188 11.101563 1.164062 16.0625 3.722656.765626 7.722656 1.515626 15.777344 2.222657 23.945312zm-52.421875.523438c-5.992188-1.824219-12.226563-2.734375-18.488282-2.699219-5.695312-.027343-11.367187.703125-16.863281 2.175781.710938-8.164062 1.453125-16.214843 2.222657-23.933593 4.960937-2.570313 10.480468-3.851563 16.0625-3.734375 5.972656-.152344 11.875 1.328125 17.066406 4.277344zm-91.15625 18.230469c5.828125-2.699219 12.203125-4.023438 18.625-3.863281 6.367187-.148438 12.6875 1.140624 18.484375 3.78125-.699219 8.734374-1.351563 17.300781-1.949219 25.429687-6.675781-2.371094-13.714844-3.554687-20.800781-3.5-5.996094-.035156-11.96875.785156-17.734375 2.433594 1.074218-7.769531 2.207031-15.941407 3.375-24.28125zm54.242187-.101563c11.796875-5.019531 25.128907-5.011718 36.914063.023438v25.113281c-6.414063-2.15625-13.140625-3.234375-19.90625-3.1875-6.414063-.039063-12.796875.921875-18.914063 2.839844.585938-7.960938 1.226563-16.308594 1.90625-24.789063zm53.984375.03125c11.785156-5.039062 25.113282-5.054687 36.910156-.042968.683594 8.484374 1.324219 16.839843 1.910157 24.800781-6.117188-1.917969-12.5-2.878907-18.914063-2.839844-6.765625-.046875-13.492187 1.03125-19.90625 3.1875zm54.046875 0c11.851563-5.070312 25.269531-5.050781 37.105469.0625 1.167969 8.34375 2.300781 16.519532 3.375 24.292969-5.765625-1.648437-11.734375-2.472656-17.730469-2.4375-7.082031-.054687-14.125 1.128906-20.800781 3.496094-.597656-8.125-1.246094-16.6875-1.949219-25.417969zm-71.117187-60.644531c-5.492188-1.863281-11.261719-2.800781-17.066406-2.773437-4.738282-.003907-9.460938.617187-14.035157 1.851562 1.265625-10.921875 2.570313-20.394531 3.882813-27.449219h27.21875zm-148.050782 62.382813c6.417969-4.011719 13.917969-5.945313 21.472657-5.53125 6.269531-.140626 12.492187 1.109374 18.21875 3.660156-1.253907 8.945312-2.457031 17.652344-3.589844 25.867187-6.953125-2.589843-14.320313-3.882812-21.742187-3.816406-6.210938-.035156-12.394532.855469-18.34375 2.644531zm50.84375 42.070312c6.261719-3.378906 13.300782-5.042969 20.410157-4.824219 6.761719-.164062 13.464843 1.316407 19.527343 4.320313-.867187 12.582031-1.535156 23.0625-1.957031 29.8125h-41.953125c.933594-6.914063 2.3125-17.125 3.976563-29.304688zm57.023438-.078125c6.230469-3.320313 13.21875-4.957031 20.277344-4.746094 6.914062-.1875 13.757812 1.375 19.90625 4.539063v29.59375h-42.125c.429687-6.835938 1.09375-17.121094 1.945312-29.382813zm57.253906-.199219c12.707032-6.128906 27.53125-6.058594 40.179688.191406.851562 12.269532 1.515625 22.554688 1.945312 29.394532h-42.125zm57.269532-.21875c6.0625-3.007812 12.765624-4.492187 19.527343-4.328125 7.105469-.214843 14.140625 1.445313 20.402344 4.8125 1.664063 12.1875 3.046875 22.40625 3.976563 29.320313h-41.949219c-.417969-6.75-1.089844-17.226563-1.957031-29.804688zm51.089843-43.4375c5.722657-2.558594 11.945313-3.8125 18.214844-3.667968 7.566406-.414063 15.074219 1.523437 21.496094 5.546874l3.980469 22.816407c-5.953126-1.792969-12.140626-2.6875-18.359376-2.652344-7.421874-.070313-14.792968 1.226563-21.746093 3.816406-1.128907-8.210937-2.335938-16.917969-3.585938-25.855469zm18.214844-20.734375c-7.027344-.0625-14.015625 1.085938-20.652344 3.394531-1.167969-8.257812-2.347656-16.53125-3.515625-24.605468 5.191406-2.953125 11.089844-4.433594 17.058594-4.28125 7.070312-.371094 14.039062 1.800781 19.648438 6.117187.558593.480469 1.179687.886719 1.847656 1.199219l3.605468 20.679688c-5.847656-1.695313-11.90625-2.539063-17.992187-2.503907zm6.824219-61.550781 3.828125 21.953125c-5.707031-2-11.714844-3-17.761719-2.960937-6.726562-.054688-13.398438 1.207031-19.640625 3.710937-1.582031-10.710937-3.101563-20.699219-4.464844-29.308594h25.582031c5.125-.625 10.097657 2.011719 12.457032 6.609375zm-210.199219-66.339844c-5.726563-.011718-11.410156-.988281-16.8125-2.894531 1.277344-6.914063 3.09375-13.71875 5.4375-20.351563l17.210937 5.738282c2.917969 1.066406 6.183594.464844 8.527344-1.574219s3.394532-5.191406 2.746094-8.226563c-.652344-3.039062-2.902344-5.484374-5.875-6.382812l-16.960938-5.65625c3.914063-10.597656 8.238282-21.441406 11.964844-30.308594.769532.097656 1.546875.21875 2.320313.273438 1.039062.074218 2.082031.109375 3.125.109375 8.472656-.03125 16.761719-2.492188 23.875-7.09375l6.519531 9.796875-14.792969 66.570312zm-5.617187-177.023437c8.890624 4.730469 16.875 11.003906 23.574218 18.527343.664063 1.441407 1.726563 2.667969 3.054688 3.535157 8.976562 10.941406 16.199218 23.207031 21.414062 36.363281-4.359375 25.132812-20.402344 33.03125-32.652344 32.1875-16.492187-1.804688-28.457031-16.546875-26.839843-33.054688 0-32.375 7.167969-49.953124 11.449219-57.558593zm73.882812 31.957031c4.710938 0 8.535156-3.820312 8.535156-8.535156v-17.359375c6.324219 4.589843 13.0625 8.585937 20.121094 11.941406-8.273438 11.289063-14.898438 23.699219-19.679688 36.851563-.421874 1.257812-.546874 2.597656-.359374 3.910156 1.289062 10.800781 5.242187 21.109375 11.5 30.007812l-7.625 11.449219h-24.984376l-7.625-11.449219c6.261719-8.894531 10.210938-19.207031 11.5-30.007812.183594-1.3125.0625-2.652344-.359374-3.910156-4.78125-13.152344-11.40625-25.5625-19.679688-36.851563 7.058594-3.355469 13.796875-7.351563 20.121094-11.941406v17.359375c0 4.714844 3.824218 8.535156 8.535156 8.535156zm73.875-31.957031c4.316406 7.664062 11.457031 25.242187 11.457031 57.558593 1.617188 16.507813-10.347656 31.25-26.839843 33.054688-12.316407.835938-28.300782-7.054688-32.652344-32.207031 5.175781-13.136719 12.371094-25.386719 21.324218-36.300781 1.421876-.890626 2.542969-2.183594 3.226563-3.714844 6.683594-7.464844 14.632813-13.691406 23.484375-18.390625zm-84.09375 117.289062h20.4375l13.273438 59.734375h-46.984376zm51.199219 59.734375-14.792969-66.570312 6.515625-9.796875c7.117187 4.601562 15.40625 7.0625 23.878906 7.09375 1.042969 0 2.085938-.035157 3.125-.109375.773438-.054688 1.546875-.175782 2.320313-.273438 3.726562 8.867188 8.050781 19.710938 11.964844 30.308594l-16.957032 5.65625c-2.976562.898438-5.226562 3.34375-5.875 6.382812-.652344 3.035157.398438 6.1875 2.746094 8.226563 2.34375 2.039063 5.609375 2.640625 8.527344 1.574219l17.210937-5.738282c2.34375 6.632813 4.160157 13.4375 5.433594 20.351563-5.398437 1.90625-11.085937 2.882813-16.8125 2.894531zm59.6875-11.59375c-1.363281-5.925781-3.417969-12.8125-5.824219-19.984375l24.621094-24.621093v5c.003906 15.355468-6.898438 29.894531-18.796875 39.605468zm18.796875-159.074218v90.335937l-30.980469 30.980469c-3.964844-10.515625-7.828125-19.976563-10.21875-25.699219 15.65625-9.1875 24.945313-26.28125 24.132813-44.414063 0-42.585937-11.238282-63.285156-16.757813-70.890624 1.753906-8.40625 5.761719-16.179688 11.589844-22.488282 13.910156 9.535156 22.226562 25.3125 22.234375 42.175782zm-38.355469-49.503907c-6.109375 7.804688-10.277344 16.949219-12.160156 26.679688-10.800781 5.179687-20.578125 12.273437-28.851563 20.9375-17.125-7.78125-31.5625-18.414063-31.5625-23.710938v-25.601562h59.730469c4.335937.015625 8.652344.585937 12.84375 1.695312zm-115.242187-35.828125h68.265624v17.066406h-68.265624zm-8.535157 34.132813h34.132813v25.601562c0 5.296875-14.4375 15.929688-31.558594 23.710938-8.277344-8.664063-18.050781-15.757813-28.855469-20.9375-1.882812-9.730469-6.050781-18.875-12.160156-26.679688 4.191406-1.109375 8.507813-1.679687 12.84375-1.695312zm-54.5625 9.023437c5.828125 6.308594 9.835938 14.082032 11.589844 22.488282-5.519531 7.605468-16.757813 28.308593-16.757813 70.890624-.8125 18.132813 8.476563 35.226563 24.132813 44.414063-2.390625 5.722656-6.253906 15.183594-10.21875 25.699219l-30.980469-30.980469v-90.335937c.007813-16.863282 8.324219-32.640626 22.234375-42.175782zm-22.234375 161.644532v-5l24.621094 24.621093c-2.40625 7.167969-4.457031 14.058594-5.824219 19.984375-11.898437-9.710937-18.800781-24.25-18.796875-39.605468zm59.730469 68.265624h119.46875v25.601563h-119.46875zm-69.683594 42.667969h25.523438c-1.363281 8.609375-2.882813 18.597657-4.464844 29.308594-6.242187-2.503906-12.914063-3.765625-19.640625-3.710937-6.03125-.039063-12.023438.957031-17.71875 2.949218l3.792969-21.722656c2.28125-4.714844 7.308593-7.460938 12.507812-6.824219zm-105.839843 132.691407c.078124-.292969.132812-.589844.171874-.890626l7.867188-57.304687c8.144531-28.941406 34.601562-48.886719 64.664062-48.753906l-23.820312 136.390625h-52.558594c.066406-9.921875 1.300782-19.804688 3.675782-29.441406zm66.210937 29.441406 4.960937-28.402344c6.550782-4.054688 14.164063-6.050781 21.859376-5.730469 6.695312-.15625 13.328124 1.292969 19.347656 4.222657-1.757813 12.863281-3.171875 23.351562-4.054688 29.910156zm322.648437 0h-26.667968c-.882813-6.558594-2.296875-17.042969-4.054688-29.902344 6.019532-2.9375 12.652344-4.386719 19.347656-4.230469 7.699219-.320312 15.320313 1.679688 21.871094 5.734375l4.949219 28.398438zm32.773438 0-23.78125-136.390625c30.046875-.117188 56.484375 19.824219 64.625 48.753906l7.871094 57.308594c.039062.300781.09375.597656.171875.890625 2.375 9.632812 3.609375 19.515625 3.671875 29.4375zm0 0"/></svg>